<svg xmlns="http://www.w3.org/2000/svg" viewBox="0 0 789.36 789.36"><rect width="789.36" height="789.36" fill="#ffffff" id="bg" class="bg"/><g><g transform="translate(0.00,&#10;                                0.00) rotate(180, 39.468, 39.468)"><svg xmlns="http://www.w3.org/2000/svg" id="Layer_1" data-name="Layer 1" viewBox="0 0 100 100" width="78.936" height="78.936"><path d="M50,100h0A50,50,0,0,1,0,50V0H100V50A50,50,0,0,1,50,100Z" fill="#725CE0"/></svg></g><g transform="translate(78.94,&#10;                                0.00) rotate(180, 39.468, 39.468)"><svg xmlns="http://www.w3.org/2000/svg" id="Layer_1" data-name="Layer 1" viewBox="0 0 100 100" width="78.936" height="78.936"><path d="M100,100H96.078A96.186,96.186,0,0,0,0,3.922V0A100.113,100.113,0,0,1,100,100Z" fill="#766FDa"/><path d="M78.184,100H74.3C74.3,60.9,40.967,29.082,0,29.082V25.2C43.111,25.2,78.184,58.753,78.184,100Z" fill="#766FDa"/><path d="M51.913,100H47.92A47.973,47.973,0,0,0,0,52.08V48.087A51.972,51.972,0,0,1,51.913,100Z" fill="#766FDa"/><path d="M25.891,100H22.056A22.081,22.081,0,0,0,0,77.944V74.109A25.921,25.921,0,0,1,25.891,100Z" fill="#766FDa"/></svg></g><g transform="translate(0.00,&#10;                                78.94) rotate(270, 39.468, 39.468)"><svg xmlns="http://www.w3.org/2000/svg" id="Layer_1" data-name="Layer 1" viewBox="0 0 100 100" width="78.936" height="78.936"><path d="M50,100h0A50,50,0,0,1,0,50V0H100V50A50,50,0,0,1,50,100Z" fill="#725CE0"/></svg></g><g transform="translate(157.87,&#10;                                0.00) rotate(0, 39.468, 39.468)"><svg xmlns="http://www.w3.org/2000/svg" id="Layer_1" data-name="Layer 1" viewBox="0 0 100 100" width="78.936" height="78.936"><path d="M50,100h0A50,50,0,0,1,0,50V0H100V50A50,50,0,0,1,50,100Z" fill="#725CE0"/></svg></g><g transform="translate(236.81,&#10;                                0.00) rotate(270, 39.468, 39.468)"><svg xmlns="http://www.w3.org/2000/svg" id="Layer_1" data-name="Layer 1" viewBox="0 0 100 100" width="78.936" height="78.936"><path d="M50,100a50,50,0,1,1,50-50v50Z" fill="#84BDC2"/></svg></g><g transform="translate(157.87,&#10;                                78.94) rotate(270, 39.468, 39.468)"><svg xmlns="http://www.w3.org/2000/svg" id="Layer_1" data-name="Layer 1" viewBox="0 0 100 100" width="78.936" height="78.936"><path d="M50,100a50,50,0,1,1,50-50v50Z" fill="#84BDC2"/></svg></g><g transform="translate(552.55,&#10;                                0.00) rotate(270, 39.468, 39.468)"><svg xmlns="http://www.w3.org/2000/svg" id="Layer_1" data-name="Layer 1" viewBox="0 0 100 100" width="78.936" height="78.936"><path d="M100,100H96.078A96.186,96.186,0,0,0,0,3.922V0A100.113,100.113,0,0,1,100,100Z" fill="#766FDa"/><path d="M78.184,100H74.3C74.3,60.9,40.967,29.082,0,29.082V25.2C43.111,25.2,78.184,58.753,78.184,100Z" fill="#766FDa"/><path d="M51.913,100H47.92A47.973,47.973,0,0,0,0,52.08V48.087A51.972,51.972,0,0,1,51.913,100Z" fill="#766FDa"/><path d="M25.891,100H22.056A22.081,22.081,0,0,0,0,77.944V74.109A25.921,25.921,0,0,1,25.891,100Z" fill="#766FDa"/></svg></g><g transform="translate(473.62,&#10;                                78.94) rotate(270, 39.468, 39.468)"><svg xmlns="http://www.w3.org/2000/svg" id="Layer_1" data-name="Layer 1" viewBox="0 0 100 100" width="78.936" height="78.936"><path d="M100,100H96.078A96.186,96.186,0,0,0,0,3.922V0A100.113,100.113,0,0,1,100,100Z" fill="#766FDa"/><path d="M78.184,100H74.3C74.3,60.9,40.967,29.082,0,29.082V25.2C43.111,25.2,78.184,58.753,78.184,100Z" fill="#766FDa"/><path d="M51.913,100H47.92A47.973,47.973,0,0,0,0,52.08V48.087A51.972,51.972,0,0,1,51.913,100Z" fill="#766FDa"/><path d="M25.891,100H22.056A22.081,22.081,0,0,0,0,77.944V74.109A25.921,25.921,0,0,1,25.891,100Z" fill="#766FDa"/></svg></g><g transform="translate(552.55,&#10;                                78.94) rotate(90, 39.468, 39.468)"><svg xmlns="http://www.w3.org/2000/svg" id="Layer_1" data-name="Layer 1" viewBox="0 0 100 100" width="78.936" height="78.936"><path d="M50,100h0A50,50,0,0,1,0,50V0H100V50A50,50,0,0,1,50,100Z" fill="#725CE0"/></svg></g><g transform="translate(710.42,&#10;                                0.00) rotate(270, 39.468, 39.468)"><svg xmlns="http://www.w3.org/2000/svg" id="Layer_1" data-name="Layer 1" viewBox="0 0 100 100" width="78.936" height="78.936"><path d="M100,100H96.078A96.186,96.186,0,0,0,0,3.922V0A100.113,100.113,0,0,1,100,100Z" fill="#766FDa"/><path d="M78.184,100H74.3C74.3,60.9,40.967,29.082,0,29.082V25.2C43.111,25.2,78.184,58.753,78.184,100Z" fill="#766FDa"/><path d="M51.913,100H47.92A47.973,47.973,0,0,0,0,52.08V48.087A51.972,51.972,0,0,1,51.913,100Z" fill="#766FDa"/><path d="M25.891,100H22.056A22.081,22.081,0,0,0,0,77.944V74.109A25.921,25.921,0,0,1,25.891,100Z" fill="#766FDa"/></svg></g><g transform="translate(631.49,&#10;                                78.94) rotate(180, 39.468, 39.468)"><svg xmlns="http://www.w3.org/2000/svg" id="Layer_1" data-name="Layer 1" viewBox="0 0 100 100" width="78.936" height="78.936"><path d="M50,100a50,50,0,1,1,50-50v50Z" fill="#84BDC2"/></svg></g><g transform="translate(710.42,&#10;                                78.94) rotate(0, 39.468, 39.468)"><svg xmlns="http://www.w3.org/2000/svg" id="Layer_1" data-name="Layer 1" viewBox="0 0 100 100" width="78.936" height="78.936"><path d="M50,100h0A50,50,0,0,1,0,50V0H100V50A50,50,0,0,1,50,100Z" fill="#725CE0"/></svg></g></g><g><g transform="translate(0.00,&#10;                                157.87) rotate(270, 39.468, 39.468)"><svg xmlns="http://www.w3.org/2000/svg" id="Layer_1" data-name="Layer 1" viewBox="0 0 100 100" width="78.936" height="78.936"><path d="M50,100h0A50,50,0,0,1,0,50V0H100V50A50,50,0,0,1,50,100Z" fill="#725CE0"/></svg></g><g transform="translate(78.94,&#10;                                157.87) rotate(180, 39.468, 39.468)"><svg xmlns="http://www.w3.org/2000/svg" id="Layer_1" data-name="Layer 1" viewBox="0 0 100 100" width="78.936" height="78.936"><path d="M100,100H96.078A96.186,96.186,0,0,0,0,3.922V0A100.113,100.113,0,0,1,100,100Z" fill="#766FDa"/><path d="M78.184,100H74.3C74.3,60.9,40.967,29.082,0,29.082V25.2C43.111,25.2,78.184,58.753,78.184,100Z" fill="#766FDa"/><path d="M51.913,100H47.92A47.973,47.973,0,0,0,0,52.08V48.087A51.972,51.972,0,0,1,51.913,100Z" fill="#766FDa"/><path d="M25.891,100H22.056A22.081,22.081,0,0,0,0,77.944V74.109A25.921,25.921,0,0,1,25.891,100Z" fill="#766FDa"/></svg></g><g transform="translate(0.00,&#10;                                236.81) rotate(180, 39.468, 39.468)"><svg xmlns="http://www.w3.org/2000/svg" id="Layer_1" data-name="Layer 1" viewBox="0 0 100 100" width="78.936" height="78.936"><path d="M100,100A50,50,0,0,0,0,100Z" fill="#84BDC2"/></svg></g><g transform="translate(78.94,&#10;                                236.81) rotate(180, 39.468, 39.468)"><svg xmlns="http://www.w3.org/2000/svg" id="Layer_1" data-name="Layer 1" viewBox="0 0 100 100" width="78.936" height="78.936"><path d="M50,100a50,50,0,1,1,50-50v50Z" fill="#84BDC2"/></svg></g><g transform="translate(157.87,&#10;                                157.87) rotate(90, 39.468, 39.468)"><svg xmlns="http://www.w3.org/2000/svg" id="Layer_1" data-name="Layer 1" viewBox="0 0 100 100" width="78.936" height="78.936"><path d="M50,100h0A50,50,0,0,1,0,50V0H100V50A50,50,0,0,1,50,100Z" fill="#725CE0"/></svg></g><g transform="translate(236.81,&#10;                                157.87) rotate(180, 39.468, 39.468)"><svg xmlns="http://www.w3.org/2000/svg" id="Layer_1" data-name="Layer 1" viewBox="0 0 100 100" width="78.936" height="78.936"><path d="M50,100a50,50,0,1,1,50-50v50Z" fill="#84BDC2"/></svg></g><g transform="translate(157.87,&#10;                                236.81) rotate(180, 39.468, 39.468)"><svg xmlns="http://www.w3.org/2000/svg" id="Layer_1" data-name="Layer 1" viewBox="0 0 100 100" width="78.936" height="78.936"><path d="M50,100a50,50,0,1,1,50-50v50Z" fill="#84BDC2"/></svg></g><g transform="translate(236.81,&#10;                                236.81) rotate(90, 39.468, 39.468)"><svg xmlns="http://www.w3.org/2000/svg" id="Layer_1" data-name="Layer 1" viewBox="0 0 100 100" width="78.936" height="78.936"><path d="M100,100A50,50,0,0,0,0,100Z" fill="#84BDC2"/></svg></g><g transform="translate(315.74,&#10;                                236.81) rotate(0, 39.468, 39.468)"><svg xmlns="http://www.w3.org/2000/svg" id="Layer_1" data-name="Layer 1" viewBox="0 0 100 100" width="78.936" height="78.936"><path d="M50,100a50,50,0,1,1,50-50v50Z" fill="#84BDC2"/></svg></g><g transform="translate(394.68,&#10;                                236.81) rotate(0, 39.468, 39.468)"><svg xmlns="http://www.w3.org/2000/svg" id="Layer_1" data-name="Layer 1" viewBox="0 0 100 100" width="78.936" height="78.936"><path d="M50,100h0A50,50,0,0,1,0,50V0H100V50A50,50,0,0,1,50,100Z" fill="#725CE0"/></svg></g><g transform="translate(473.62,&#10;                                157.87) rotate(180, 39.468, 39.468)"><svg xmlns="http://www.w3.org/2000/svg" id="Layer_1" data-name="Layer 1" viewBox="0 0 100 100" width="78.936" height="78.936"><path d="M50,100h0A50,50,0,0,1,0,50V0H100V50A50,50,0,0,1,50,100Z" fill="#725CE0"/></svg></g><g transform="translate(473.62,&#10;                                236.81) rotate(270, 39.468, 39.468)"><svg xmlns="http://www.w3.org/2000/svg" id="Layer_1" data-name="Layer 1" viewBox="0 0 100 100" width="78.936" height="78.936"><path d="M50,100a50,50,0,1,1,50-50v50Z" fill="#84BDC2"/></svg></g><g transform="translate(631.49,&#10;                                157.87) rotate(270, 39.468, 39.468)"><svg xmlns="http://www.w3.org/2000/svg" id="Layer_1" data-name="Layer 1" viewBox="0 0 100 100" width="78.936" height="78.936"><path d="M100,100H96.078A96.186,96.186,0,0,0,0,3.922V0A100.113,100.113,0,0,1,100,100Z" fill="#766FDa"/><path d="M78.184,100H74.3C74.3,60.9,40.967,29.082,0,29.082V25.2C43.111,25.2,78.184,58.753,78.184,100Z" fill="#766FDa"/><path d="M51.913,100H47.92A47.973,47.973,0,0,0,0,52.08V48.087A51.972,51.972,0,0,1,51.913,100Z" fill="#766FDa"/><path d="M25.891,100H22.056A22.081,22.081,0,0,0,0,77.944V74.109A25.921,25.921,0,0,1,25.891,100Z" fill="#766FDa"/></svg></g><g transform="translate(631.49,&#10;                                236.81) rotate(270, 39.468, 39.468)"><svg xmlns="http://www.w3.org/2000/svg" id="Layer_1" data-name="Layer 1" viewBox="0 0 100 100" width="78.936" height="78.936"><path d="M100,100A50,50,0,0,0,0,100Z" fill="#84BDC2"/></svg></g></g><g><g transform="translate(78.94,&#10;                                315.74) rotate(180, 39.468, 39.468)"><svg xmlns="http://www.w3.org/2000/svg" id="Layer_1" data-name="Layer 1" viewBox="0 0 100 100" width="78.936" height="78.936"><path d="M100,100H96.078A96.186,96.186,0,0,0,0,3.922V0A100.113,100.113,0,0,1,100,100Z" fill="#766FDa"/><path d="M78.184,100H74.3C74.3,60.9,40.967,29.082,0,29.082V25.2C43.111,25.2,78.184,58.753,78.184,100Z" fill="#766FDa"/><path d="M51.913,100H47.92A47.973,47.973,0,0,0,0,52.08V48.087A51.972,51.972,0,0,1,51.913,100Z" fill="#766FDa"/><path d="M25.891,100H22.056A22.081,22.081,0,0,0,0,77.944V74.109A25.921,25.921,0,0,1,25.891,100Z" fill="#766FDa"/></svg></g><g transform="translate(0.00,&#10;                                394.68) rotate(180, 39.468, 39.468)"><svg xmlns="http://www.w3.org/2000/svg" id="Layer_1" data-name="Layer 1" viewBox="0 0 100 100" width="78.936" height="78.936"><path d="M50,100h0A50,50,0,0,1,0,50V0H100V50A50,50,0,0,1,50,100Z" fill="#725CE0"/></svg></g><g transform="translate(78.94,&#10;                                394.68) rotate(0, 39.468, 39.468)"><svg xmlns="http://www.w3.org/2000/svg" id="Layer_1" data-name="Layer 1" viewBox="0 0 100 100" width="78.936" height="78.936"><path d="M50,100a50,50,0,1,1,50-50v50Z" fill="#84BDC2"/></svg></g><g transform="translate(157.87,&#10;                                315.74) rotate(270, 39.468, 39.468)"><svg xmlns="http://www.w3.org/2000/svg" id="Layer_1" data-name="Layer 1" viewBox="0 0 100 100" width="78.936" height="78.936"><path d="M50,100h0A50,50,0,0,1,0,50V0H100V50A50,50,0,0,1,50,100Z" fill="#725CE0"/></svg></g><g transform="translate(236.81,&#10;                                315.74) rotate(180, 39.468, 39.468)"><svg xmlns="http://www.w3.org/2000/svg" id="Layer_1" data-name="Layer 1" viewBox="0 0 100 100" width="78.936" height="78.936"><path d="M50,100a50,50,0,1,1,50-50v50Z" fill="#84BDC2"/></svg></g><g transform="translate(157.87,&#10;                                394.68) rotate(0, 39.468, 39.468)"><svg xmlns="http://www.w3.org/2000/svg" id="Layer_1" data-name="Layer 1" viewBox="0 0 100 100" width="78.936" height="78.936"><path d="M100,100A50,50,0,0,0,0,100Z" fill="#84BDC2"/></svg></g><g transform="translate(394.68,&#10;                                315.74) rotate(270, 39.468, 39.468)"><svg xmlns="http://www.w3.org/2000/svg" id="Layer_1" data-name="Layer 1" viewBox="0 0 100 100" width="78.936" height="78.936"><path d="M50,100a50,50,0,1,1,50-50v50Z" fill="#84BDC2"/></svg></g><g transform="translate(394.68,&#10;                                394.68) rotate(90, 39.468, 39.468)"><svg xmlns="http://www.w3.org/2000/svg" id="Layer_1" data-name="Layer 1" viewBox="0 0 100 100" width="78.936" height="78.936"><path d="M50,100a50,50,0,1,1,50-50v50Z" fill="#84BDC2"/></svg></g><g transform="translate(552.55,&#10;                                315.74) rotate(90, 39.468, 39.468)"><svg xmlns="http://www.w3.org/2000/svg" id="Layer_1" data-name="Layer 1" viewBox="0 0 100 100" width="78.936" height="78.936"><path d="M100,100H96.078A96.186,96.186,0,0,0,0,3.922V0A100.113,100.113,0,0,1,100,100Z" fill="#766FDa"/><path d="M78.184,100H74.3C74.3,60.9,40.967,29.082,0,29.082V25.2C43.111,25.2,78.184,58.753,78.184,100Z" fill="#766FDa"/><path d="M51.913,100H47.92A47.973,47.973,0,0,0,0,52.08V48.087A51.972,51.972,0,0,1,51.913,100Z" fill="#766FDa"/><path d="M25.891,100H22.056A22.081,22.081,0,0,0,0,77.944V74.109A25.921,25.921,0,0,1,25.891,100Z" fill="#766FDa"/></svg></g><g transform="translate(552.55,&#10;                                394.68) rotate(180, 39.468, 39.468)"><svg xmlns="http://www.w3.org/2000/svg" id="Layer_1" data-name="Layer 1" viewBox="0 0 100 100" width="78.936" height="78.936"><path d="M100,100A50,50,0,0,0,0,100Z" fill="#84BDC2"/></svg></g><g transform="translate(631.49,&#10;                                315.74) rotate(270, 39.468, 39.468)"><svg xmlns="http://www.w3.org/2000/svg" id="Layer_1" data-name="Layer 1" viewBox="0 0 100 100" width="78.936" height="78.936"><path d="M100,100H96.078A96.186,96.186,0,0,0,0,3.922V0A100.113,100.113,0,0,1,100,100Z" fill="#766FDa"/><path d="M78.184,100H74.3C74.3,60.9,40.967,29.082,0,29.082V25.2C43.111,25.2,78.184,58.753,78.184,100Z" fill="#766FDa"/><path d="M51.913,100H47.92A47.973,47.973,0,0,0,0,52.08V48.087A51.972,51.972,0,0,1,51.913,100Z" fill="#766FDa"/><path d="M25.891,100H22.056A22.081,22.081,0,0,0,0,77.944V74.109A25.921,25.921,0,0,1,25.891,100Z" fill="#766FDa"/></svg></g><g transform="translate(710.42,&#10;                                315.74) rotate(0, 39.468, 39.468)"><svg xmlns="http://www.w3.org/2000/svg" id="Layer_1" data-name="Layer 1" viewBox="0 0 100 100" width="78.936" height="78.936"><path d="M50,100a50,50,0,1,1,50-50v50Z" fill="#84BDC2"/></svg></g><g transform="translate(710.42,&#10;                                394.68) rotate(0, 39.468, 39.468)"><svg xmlns="http://www.w3.org/2000/svg" id="Layer_1" data-name="Layer 1" viewBox="0 0 100 100" width="78.936" height="78.936"><path d="M100,100A50,50,0,0,0,0,100Z" fill="#84BDC2"/></svg></g></g><g><g transform="translate(0.00,&#10;                                552.55) rotate(180, 39.468, 39.468)"><svg xmlns="http://www.w3.org/2000/svg" id="Layer_1" data-name="Layer 1" viewBox="0 0 100 100" width="78.936" height="78.936"><path d="M100,100A50,50,0,0,0,0,100Z" fill="#84BDC2"/></svg></g><g transform="translate(236.81,&#10;                                473.62) rotate(90, 39.468, 39.468)"><svg xmlns="http://www.w3.org/2000/svg" id="Layer_1" data-name="Layer 1" viewBox="0 0 100 100" width="78.936" height="78.936"><path d="M100,100H96.078A96.186,96.186,0,0,0,0,3.922V0A100.113,100.113,0,0,1,100,100Z" fill="#766FDa"/><path d="M78.184,100H74.3C74.3,60.9,40.967,29.082,0,29.082V25.2C43.111,25.2,78.184,58.753,78.184,100Z" fill="#766FDa"/><path d="M51.913,100H47.92A47.973,47.973,0,0,0,0,52.08V48.087A51.972,51.972,0,0,1,51.913,100Z" fill="#766FDa"/><path d="M25.891,100H22.056A22.081,22.081,0,0,0,0,77.944V74.109A25.921,25.921,0,0,1,25.891,100Z" fill="#766FDa"/></svg></g><g transform="translate(157.87,&#10;                                552.55) rotate(0, 39.468, 39.468)"><svg xmlns="http://www.w3.org/2000/svg" id="Layer_1" data-name="Layer 1" viewBox="0 0 100 100" width="78.936" height="78.936"><path d="M50,100a50,50,0,1,1,50-50v50Z" fill="#84BDC2"/></svg></g><g transform="translate(394.68,&#10;                                473.62) rotate(270, 39.468, 39.468)"><svg xmlns="http://www.w3.org/2000/svg" id="Layer_1" data-name="Layer 1" viewBox="0 0 100 100" width="78.936" height="78.936"><path d="M50,100a50,50,0,1,1,50-50v50Z" fill="#84BDC2"/></svg></g><g transform="translate(315.74,&#10;                                552.55) rotate(270, 39.468, 39.468)"><svg xmlns="http://www.w3.org/2000/svg" id="Layer_1" data-name="Layer 1" viewBox="0 0 100 100" width="78.936" height="78.936"><path d="M50,100h0A50,50,0,0,1,0,50V0H100V50A50,50,0,0,1,50,100Z" fill="#725CE0"/></svg></g><g transform="translate(552.55,&#10;                                473.62) rotate(180, 39.468, 39.468)"><svg xmlns="http://www.w3.org/2000/svg" id="Layer_1" data-name="Layer 1" viewBox="0 0 100 100" width="78.936" height="78.936"><path d="M50,100a50,50,0,1,1,50-50v50Z" fill="#84BDC2"/></svg></g><g transform="translate(473.62,&#10;                                552.55) rotate(180, 39.468, 39.468)"><svg xmlns="http://www.w3.org/2000/svg" id="Layer_1" data-name="Layer 1" viewBox="0 0 100 100" width="78.936" height="78.936"><path d="M50,100h0A50,50,0,0,1,0,50V0H100V50A50,50,0,0,1,50,100Z" fill="#725CE0"/></svg></g><g transform="translate(631.49,&#10;                                552.55) rotate(0, 39.468, 39.468)"><svg xmlns="http://www.w3.org/2000/svg" id="Layer_1" data-name="Layer 1" viewBox="0 0 100 100" width="78.936" height="78.936"><path d="M50,100a50,50,0,1,1,50-50v50Z" fill="#84BDC2"/></svg></g></g><g><g transform="translate(78.94,&#10;                                631.49) rotate(180, 39.468, 39.468)"><svg xmlns="http://www.w3.org/2000/svg" id="Layer_1" data-name="Layer 1" viewBox="0 0 100 100" width="78.936" height="78.936"><path d="M50,100a50,50,0,1,1,50-50v50Z" fill="#84BDC2"/></svg></g><g transform="translate(0.00,&#10;                                710.42) rotate(0, 39.468, 39.468)"><svg xmlns="http://www.w3.org/2000/svg" id="Layer_1" data-name="Layer 1" viewBox="0 0 100 100" width="78.936" height="78.936"><path d="M50,100a50,50,0,1,1,50-50v50Z" fill="#84BDC2"/></svg></g><g transform="translate(157.87,&#10;                                631.49) rotate(90, 39.468, 39.468)"><svg xmlns="http://www.w3.org/2000/svg" id="Layer_1" data-name="Layer 1" viewBox="0 0 100 100" width="78.936" height="78.936"><path d="M100,100H96.078A96.186,96.186,0,0,0,0,3.922V0A100.113,100.113,0,0,1,100,100Z" fill="#766FDa"/><path d="M78.184,100H74.3C74.3,60.9,40.967,29.082,0,29.082V25.2C43.111,25.2,78.184,58.753,78.184,100Z" fill="#766FDa"/><path d="M51.913,100H47.92A47.973,47.973,0,0,0,0,52.08V48.087A51.972,51.972,0,0,1,51.913,100Z" fill="#766FDa"/><path d="M25.891,100H22.056A22.081,22.081,0,0,0,0,77.944V74.109A25.921,25.921,0,0,1,25.891,100Z" fill="#766FDa"/></svg></g><g transform="translate(157.87,&#10;                                710.42) rotate(270, 39.468, 39.468)"><svg xmlns="http://www.w3.org/2000/svg" id="Layer_1" data-name="Layer 1" viewBox="0 0 100 100" width="78.936" height="78.936"><path d="M50,100h0A50,50,0,0,1,0,50V0H100V50A50,50,0,0,1,50,100Z" fill="#725CE0"/></svg></g><g transform="translate(236.81,&#10;                                710.42) rotate(90, 39.468, 39.468)"><svg xmlns="http://www.w3.org/2000/svg" id="Layer_1" data-name="Layer 1" viewBox="0 0 100 100" width="78.936" height="78.936"><path d="M50,100h0A50,50,0,0,1,0,50V0H100V50A50,50,0,0,1,50,100Z" fill="#725CE0"/></svg></g><g transform="translate(315.74,&#10;                                710.42) rotate(270, 39.468, 39.468)"><svg xmlns="http://www.w3.org/2000/svg" id="Layer_1" data-name="Layer 1" viewBox="0 0 100 100" width="78.936" height="78.936"><path d="M100,100H96.078A96.186,96.186,0,0,0,0,3.922V0A100.113,100.113,0,0,1,100,100Z" fill="#766FDa"/><path d="M78.184,100H74.3C74.3,60.9,40.967,29.082,0,29.082V25.2C43.111,25.2,78.184,58.753,78.184,100Z" fill="#766FDa"/><path d="M51.913,100H47.92A47.973,47.973,0,0,0,0,52.08V48.087A51.972,51.972,0,0,1,51.913,100Z" fill="#766FDa"/><path d="M25.891,100H22.056A22.081,22.081,0,0,0,0,77.944V74.109A25.921,25.921,0,0,1,25.891,100Z" fill="#766FDa"/></svg></g><g transform="translate(473.62,&#10;                                631.49) rotate(180, 39.468, 39.468)"><svg xmlns="http://www.w3.org/2000/svg" id="Layer_1" data-name="Layer 1" viewBox="0 0 100 100" width="78.936" height="78.936"><path d="M100,100H96.078A96.186,96.186,0,0,0,0,3.922V0A100.113,100.113,0,0,1,100,100Z" fill="#766FDa"/><path d="M78.184,100H74.3C74.3,60.9,40.967,29.082,0,29.082V25.2C43.111,25.2,78.184,58.753,78.184,100Z" fill="#766FDa"/><path d="M51.913,100H47.92A47.973,47.973,0,0,0,0,52.08V48.087A51.972,51.972,0,0,1,51.913,100Z" fill="#766FDa"/><path d="M25.891,100H22.056A22.081,22.081,0,0,0,0,77.944V74.109A25.921,25.921,0,0,1,25.891,100Z" fill="#766FDa"/></svg></g><g transform="translate(552.55,&#10;                                631.49) rotate(90, 39.468, 39.468)"><svg xmlns="http://www.w3.org/2000/svg" id="Layer_1" data-name="Layer 1" viewBox="0 0 100 100" width="78.936" height="78.936"><path d="M100,100H96.078A96.186,96.186,0,0,0,0,3.922V0A100.113,100.113,0,0,1,100,100Z" fill="#766FDa"/><path d="M78.184,100H74.3C74.3,60.9,40.967,29.082,0,29.082V25.2C43.111,25.2,78.184,58.753,78.184,100Z" fill="#766FDa"/><path d="M51.913,100H47.92A47.973,47.973,0,0,0,0,52.08V48.087A51.972,51.972,0,0,1,51.913,100Z" fill="#766FDa"/><path d="M25.891,100H22.056A22.081,22.081,0,0,0,0,77.944V74.109A25.921,25.921,0,0,1,25.891,100Z" fill="#766FDa"/></svg></g><g transform="translate(473.62,&#10;                                710.42) rotate(90, 39.468, 39.468)"><svg xmlns="http://www.w3.org/2000/svg" id="Layer_1" data-name="Layer 1" viewBox="0 0 100 100" width="78.936" height="78.936"><path d="M100,100A50,50,0,0,0,0,100Z" fill="#84BDC2"/></svg></g><g transform="translate(631.49,&#10;                                631.49) rotate(270, 39.468, 39.468)"><svg xmlns="http://www.w3.org/2000/svg" id="Layer_1" data-name="Layer 1" viewBox="0 0 100 100" width="78.936" height="78.936"><path d="M100,100H96.078A96.186,96.186,0,0,0,0,3.922V0A100.113,100.113,0,0,1,100,100Z" fill="#766FDa"/><path d="M78.184,100H74.3C74.3,60.9,40.967,29.082,0,29.082V25.2C43.111,25.2,78.184,58.753,78.184,100Z" fill="#766FDa"/><path d="M51.913,100H47.92A47.973,47.973,0,0,0,0,52.08V48.087A51.972,51.972,0,0,1,51.913,100Z" fill="#766FDa"/><path d="M25.891,100H22.056A22.081,22.081,0,0,0,0,77.944V74.109A25.921,25.921,0,0,1,25.891,100Z" fill="#766FDa"/></svg></g><g transform="translate(710.42,&#10;                                631.49) rotate(180, 39.468, 39.468)"><svg xmlns="http://www.w3.org/2000/svg" id="Layer_1" data-name="Layer 1" viewBox="0 0 100 100" width="78.936" height="78.936"><path d="M50,100a50,50,0,1,1,50-50v50Z" fill="#84BDC2"/></svg></g><g transform="translate(631.49,&#10;                                710.42) rotate(180, 39.468, 39.468)"><svg xmlns="http://www.w3.org/2000/svg" id="Layer_1" data-name="Layer 1" viewBox="0 0 100 100" width="78.936" height="78.936"><path d="M50,100h0A50,50,0,0,1,0,50V0H100V50A50,50,0,0,1,50,100Z" fill="#725CE0"/></svg></g><g transform="translate(710.42,&#10;                                710.42) rotate(270, 39.468, 39.468)"><svg xmlns="http://www.w3.org/2000/svg" id="Layer_1" data-name="Layer 1" viewBox="0 0 100 100" width="78.936" height="78.936"><path d="M50,100h0A50,50,0,0,1,0,50V0H100V50A50,50,0,0,1,50,100Z" fill="#725CE0"/></svg></g></g></svg>