<?xml version="1.0" standalone="no"?>
<!DOCTYPE svg PUBLIC "-//W3C//DTD SVG 20010904//EN"
 "http://www.w3.org/TR/2001/REC-SVG-20010904/DTD/svg10.dtd">
<svg version="1.0" xmlns="http://www.w3.org/2000/svg"
 width="100.000000pt" height="100.000000pt" viewBox="0 0 100.000000 100.000000"
 preserveAspectRatio="xMidYMid meet">

<g transform="translate(0.000000,100.000000) scale(0.100000,-0.100000)"
fill="#000000" stroke="none">
<path d="M225 818 c-14 -58 -75 -373 -75 -385 0 -10 11 -13 37 -11 37 3 38 4
48 58 l10 55 55 3 55 2 31 -57 c29 -55 33 -58 72 -61 23 -2 42 -1 42 2 0 3
-16 32 -35 65 -39 67 -41 71 -21 71 21 0 74 47 91 81 22 42 19 111 -7 144 -34
43 -75 55 -192 55 -101 0 -106 -1 -111 -22z m223 -64 c35 -24 31 -85 -9 -118
-27 -23 -39 -26 -105 -26 -67 0 -75 2 -70 18 3 9 10 45 17 80 l12 62 66 0 c44
0 74 -5 89 -16z"/>
<path d="M296 688 c-3 -7 -7 -25 -10 -40 -6 -27 -5 -28 33 -28 32 0 40 4 45
23 13 48 8 57 -29 57 -20 0 -37 -6 -39 -12z"/>
<path d="M587 693 c-3 -5 -8 -27 -12 -50 l-7 -43 40 0 c38 0 40 2 46 38 10 60
9 62 -28 62 -19 0 -37 -3 -39 -7z"/>
<path d="M508 550 c-3 -17 -2 -32 0 -35 3 -3 34 -5 69 -5 61 0 63 -1 58 -22
-6 -28 -65 -320 -65 -325 0 -1 18 -3 39 -3 l40 0 10 53 c6 28 21 106 34 172
l22 120 68 3 c62 3 69 5 77 28 6 14 10 30 10 35 0 5 -75 9 -179 9 l-179 0 -4
-30z"/>
<path d="M252 470 c-19 -104 19 -169 109 -190 105 -25 201 25 239 126 30 82
28 96 -16 92 -35 -3 -38 -6 -49 -51 -14 -56 -36 -82 -81 -97 -41 -14 -86 -6
-109 20 -15 16 -17 32 -13 90 l5 70 -37 0 -38 0 -10 -60z"/>
</g>
</svg>
